<?xml version="1.0" encoding="utf-8"?>
<!-- Generator: Adobe Illustrator 27.7.0, SVG Export Plug-In . SVG Version: 6.00 Build 0)  -->
<svg width="235" height="80"  version="1.1" id="Layer_1" xmlns="http://www.w3.org/2000/svg" xmlns:xlink="http://www.w3.org/1999/xlink" x="0px" y="0px"
	 viewBox="0 0 269.2 79.8" style="enable-background:new 0 0 269.2 79.8;" xml:space="preserve">
<style type="text/css">
	.st0{clip-path:url(#SVGID_00000007394083528681519230000013872595363649352895_);}
	.st1{fill:#A6A6A6;}
	.st2{fill:#FFFFFF;}
	.st3{fill:#EA4335;}
	.st4{fill:#FBBC04;}
	.st5{fill:#4285F4;}
	.st6{fill:#34A853;}
</style>
<g>
	<g>
		<defs>
			<rect id="SVGID_1_" width="269.2" height="79.8"/>
		</defs>
		<clipPath id="SVGID_00000127736457095669993230000007770958372114286215_">
			<use xlink:href="#SVGID_1_"  style="overflow:visible;"/>
		</clipPath>
		<g style="clip-path:url(#SVGID_00000127736457095669993230000007770958372114286215_);">
			<path d="M259.2,0H10C4.5,0,0,4.5,0,10v59.8c0,5.5,4.5,10,10,10h249.2c5.5,0,10-4.5,10-10V10C269.2,4.5,264.7,0,259.2,0z"/>
			<path class="st1" d="M259.2,1.6c4.6,0,8.4,3.7,8.4,8.4v59.8c0,4.6-3.7,8.4-8.4,8.4H10c-4.6,0-8.4-3.7-8.4-8.4V10
				c0-4.6,3.7-8.4,8.4-8.4H259.2z M259.2,0H10C4.5,0,0,4.5,0,10v59.8c0,5.5,4.5,10,10,10h249.2c5.5,0,10-4.5,10-10V10
				C269.2,4.5,264.7,0,259.2,0z"/>
			<path class="st2" d="M95.8,14c-0.2-0.6-0.4-1.1-0.7-1.5c-0.3-0.5-0.7-0.8-1.1-1.2c-0.4-0.3-0.9-0.6-1.4-0.7
				c-0.5-0.2-1.1-0.3-1.7-0.3c-1,0-2,0.3-2.8,0.8c-0.8,0.5-1.5,1.3-2,2.4c-0.5,1-0.7,2.3-0.7,3.8S85.5,20,86,21c0.5,1,1.2,1.8,2,2.4
				c0.9,0.5,1.8,0.8,2.9,0.8c1,0,1.9-0.2,2.6-0.6c0.8-0.4,1.4-1,1.8-1.8c0.4-0.8,0.6-1.7,0.6-2.8l0.6,0.1h-5.2v-1.9h6.6v1.9
				c0,1.4-0.3,2.7-0.9,3.7c-0.6,1.1-1.4,1.9-2.5,2.5c-1.1,0.6-2.3,0.9-3.7,0.9c-1.5,0-2.9-0.4-4.1-1.1c-1.2-0.7-2.1-1.8-2.7-3.1
				c-0.6-1.3-1-2.9-1-4.8c0-1.4,0.2-2.6,0.6-3.7c0.4-1.1,0.9-2,1.6-2.8c0.7-0.8,1.5-1.4,2.4-1.8c0.9-0.4,2-0.6,3.1-0.6
				c0.9,0,1.8,0.1,2.6,0.4c0.8,0.3,1.5,0.7,2.1,1.2c0.6,0.5,1.2,1.1,1.6,1.8c0.4,0.7,0.7,1.5,0.9,2.3H95.8z"/>
			<path class="st2" d="M101.7,25.9V8.5h10.5v1.9h-8.4v5.9h7.9v1.9h-7.9v5.9h8.5v1.9H101.7z"/>
			<path class="st2" d="M115.1,10.4V8.5h13.1v1.9h-5.5v15.5h-2.1V10.4H115.1z"/>
			<path class="st2" d="M140.2,8.5v17.4h-2.1V8.5H140.2z"/>
			<path class="st2" d="M143.5,10.4V8.5h13.1v1.9H151v15.5h-2.1V10.4H143.5z"/>
			<path class="st2" d="M181.2,17.2c0,1.8-0.3,3.4-1,4.8c-0.7,1.3-1.6,2.4-2.7,3.1c-1.2,0.7-2.5,1.1-4,1.1s-2.8-0.4-4-1.1
				c-1.2-0.7-2.1-1.8-2.7-3.1c-0.7-1.3-1-2.9-1-4.8c0-1.8,0.3-3.4,1-4.8c0.7-1.3,1.6-2.4,2.7-3.1c1.2-0.7,2.5-1.1,4-1.1
				s2.8,0.4,4,1.1c1.2,0.7,2.1,1.8,2.7,3.1C180.9,13.8,181.2,15.4,181.2,17.2z M179.1,17.2c0-1.5-0.3-2.8-0.8-3.8
				c-0.5-1-1.2-1.8-2-2.4c-0.8-0.5-1.8-0.8-2.9-0.8s-2,0.3-2.9,0.8c-0.8,0.5-1.5,1.3-2,2.4c-0.5,1-0.7,2.3-0.7,3.8s0.2,2.8,0.7,3.8
				c0.5,1,1.2,1.8,2,2.4c0.9,0.5,1.8,0.8,2.9,0.8s2-0.3,2.9-0.8c0.9-0.5,1.5-1.3,2-2.4C178.9,20,179.1,18.7,179.1,17.2z"/>
			<path class="st2" d="M198.5,8.5v17.4h-2L187,12.3h-0.2v13.7h-2.1V8.5h2l9.5,13.7h0.2V8.5H198.5z"/>
			<path class="st2" d="M135.9,43.4c-4.7,0-8.5,3.6-8.5,8.5s3.8,8.5,8.5,8.5c4.7,0,8.5-3.6,8.5-8.5S140.5,43.4,135.9,43.4z
				 M135.9,57c-2.6,0-4.8-2.1-4.8-5.1c0-3,2.2-5.1,4.8-5.1s4.8,2.1,4.8,5.1C140.6,54.9,138.4,57,135.9,57z M117.3,43.4
				c-4.7,0-8.5,3.6-8.5,8.5s3.8,8.5,8.5,8.5s8.5-3.6,8.5-8.5S122,43.4,117.3,43.4z M117.3,57c-2.6,0-4.8-2.1-4.8-5.1
				c0-3,2.2-5.1,4.8-5.1c2.6,0,4.8,2.1,4.8,5.1C122.1,54.9,119.9,57,117.3,57z M95.2,46v3.6h8.6c-0.3,2-0.9,3.5-2,4.5
				c-1.3,1.3-3.2,2.6-6.6,2.6c-5.3,0-9.5-4.3-9.5-9.6c0-5.3,4.1-9.6,9.5-9.6c2.9,0,4.9,1.1,6.5,2.6l2.5-2.5c-2.2-2.1-5-3.6-9-3.6
				c-7.3,0-13.4,5.9-13.4,13.2c0,7.3,6.1,13.2,13.4,13.2c3.9,0,6.9-1.3,9.2-3.7c2.4-2.4,3.1-5.7,3.1-8.4c0-0.8-0.1-1.6-0.2-2.3
				L95.2,46L95.2,46z M185.5,48.7c-0.7-1.9-2.9-5.4-7.3-5.4c-4.4,0-8,3.4-8,8.5c0,4.7,3.6,8.5,8.4,8.5c3.9,0,6.1-2.4,7.1-3.7
				l-2.9-1.9c-1,1.4-2.3,2.4-4.2,2.4c-1.9,0-3.2-0.9-4.1-2.6l11.3-4.7L185.5,48.7L185.5,48.7z M174,51.6c-0.1-3.3,2.5-4.9,4.4-4.9
				c1.5,0,2.7,0.7,3.2,1.8L174,51.6z M164.8,59.8h3.7V34.9h-3.7V59.8z M158.7,45.2h-0.1c-0.8-1-2.4-1.9-4.5-1.9
				c-4.2,0-8.1,3.7-8.1,8.5s3.9,8.5,8.1,8.5c2,0,3.6-0.9,4.5-1.9h0.1v1.2c0,3.2-1.7,5-4.5,5c-2.3,0-3.7-1.6-4.3-3l-3.2,1.4
				c0.9,2.3,3.4,5,7.5,5c4.4,0,8.1-2.6,8.1-8.8V43.9h-3.5V45.2z M154.4,57c-2.6,0-4.7-2.2-4.7-5.1s2.2-5.2,4.7-5.2
				c2.6,0,4.5,2.2,4.5,5.2S156.9,57,154.4,57z M203,34.9h-8.9v24.9h3.7v-9.5h5.2c4.1,0,8.2-3,8.2-7.7S207.2,34.9,203,34.9L203,34.9z
				 M203.1,46.9h-5.3v-8.6h5.3c2.8,0,4.4,2.3,4.4,4.3S205.9,46.9,203.1,46.9L203.1,46.9z M226.1,43.3c-2.7,0-5.5,1.2-6.6,3.8
				l3.3,1.4c0.7-1.4,2-1.8,3.4-1.8c1.9,0,3.9,1.2,3.9,3.2v0.3c-0.7-0.4-2.1-1-3.9-1c-3.6,0-7.2,2-7.2,5.6c0,3.3,2.9,5.5,6.2,5.5
				c2.5,0,3.9-1.1,4.7-2.4h0.1v1.9h3.6v-9.6C233.6,45.8,230.3,43.3,226.1,43.3L226.1,43.3z M225.6,57c-1.2,0-2.9-0.6-2.9-2.1
				c0-1.9,2.1-2.7,3.9-2.7c1.6,0,2.4,0.4,3.4,0.8C229.8,55.3,227.8,57,225.6,57L225.6,57z M246.7,43.8l-4.3,10.8h-0.1l-4.4-10.8h-4
				l6.6,15.1l-3.8,8.4h3.9l10.2-23.5H246.7L246.7,43.8z M213.2,59.8h3.7V34.9h-3.7V59.8z"/>
			<path class="st3" d="M41.3,38.7L20.1,61.2c0.7,2.5,2.9,4.2,5.5,4.2c1.1,0,2.1-0.3,2.9-0.8l0.1,0l23.9-13.8L41.3,38.7L41.3,38.7z"
				/>
			<path class="st4" d="M62.8,34.9L62.8,34.9l-10.3-6L40.8,39.2l11.7,11.7L62.8,45c1.8-1,3-2.9,3-5C65.8,37.8,64.6,35.9,62.8,34.9
				L62.8,34.9z"/>
			<path class="st5" d="M20.1,18.5c-0.1,0.5-0.2,1-0.2,1.5v39.8c0,0.5,0.1,1,0.2,1.5l22-22L20.1,18.5z"/>
			<path class="st6" d="M41.5,39.9l11-11L28.6,15.1c-0.9-0.5-1.9-0.8-3-0.8c-2.7,0-4.9,1.8-5.5,4.2L41.5,39.9L41.5,39.9z"/>
		</g>
	</g>
</g>
</svg>
